<svg xmlns="http://www.w3.org/2000/svg" width="1200" height="860" viewBox="0 0 1200 860" role="img" aria-labelledby="title desc"><title id="title">SCR-US003-02 — Tạo Cơ hội</title><desc id="desc">Form tạo cơ hội trong ngữ cảnh FPT Software với bốn thông tin AC-008.</desc>
<style>.bg{fill:#f7f9fc}.card{fill:#fff;stroke:#d9e2ef}.h1{font:700 26px Inter,'Segoe UI',Arial;fill:#07152f}.sub{font:400 14px Inter,'Segoe UI',Arial;fill:#64748b}.section{font:700 15px Inter,'Segoe UI',Arial;fill:#263a59}.label{font:500 14px Inter,'Segoe UI',Arial;fill:#14233e}.input{fill:#fff;stroke:#becde1}.value{font:400 14px Inter,'Segoe UI',Arial;fill:#07152f}.hint{font:400 12px Inter,'Segoe UI',Arial;fill:#8da1c3}.btn{font:600 14px Inter,'Segoe UI',Arial}</style><rect width="1200" height="860" class="bg"/><text x="28" y="34" class="sub">Công ty  ›  FPT Software  ›  Cơ hội  ›  Tạo mới</text><text x="28" y="82" class="h1">Tạo cơ hội</text>
<rect x="214" y="116" width="772" height="600" rx="14" class="card"/><rect x="248" y="150" width="5" height="25" rx="3" fill="#695cff"/><text x="266" y="169" class="section">THÔNG TIN CƠ HỘI</text><rect x="248" y="192" width="704" height="54" rx="9" fill="#eef6ff"/><text x="268" y="218" class="label" fill="#1d4ed8">Công ty sở hữu</text><text x="420" y="218" class="value">FPT Software</text>
<text x="248" y="292" class="label">Tên cơ hội</text><rect x="248" y="309" width="704" height="45" rx="6" class="input"/><text x="264" y="337" class="value">Chuyển đổi hệ thống ERP</text><text x="248" y="398" class="label">Giá trị dự kiến</text><rect x="248" y="415" width="334" height="45" rx="6" class="input"/><text x="264" y="443" class="value">2.400.000.000</text><text x="618" y="398" class="label">Tháng dự kiến chốt</text><rect x="618" y="415" width="334" height="45" rx="6" class="input"/><text x="634" y="443" class="value">10/2026</text><text x="248" y="504" class="label">Giai đoạn</text><rect x="248" y="521" width="704" height="45" rx="6" class="input"/><text x="264" y="549" class="value">Tiếp cận</text><text x="924" y="549" class="label">⌄</text><text x="248" y="596" class="hint">Giai đoạn phải thuộc bảy giá trị của BR-004; quy tắc bắt buộc/định dạng khác vẫn là Q-003-03..05.</text>
<rect x="740" y="740" width="92" height="44" rx="7" fill="#fff" stroke="#bfcee0"/><text x="769" y="768" class="btn" fill="#263a59">Hủy</text><rect x="846" y="740" width="140" height="44" rx="7" fill="#5236f5"/><text x="879" y="768" class="btn" fill="#fff">Tạo cơ hội</text><text x="28" y="836" class="hint">SCR-US003-02 · US-003 · AC-008</text></svg>
