<svg xmlns="http://www.w3.org/2000/svg" width="1200" height="760" viewBox="0 0 1200 760" role="img" aria-labelledby="title desc"><title id="title">SCR-US009-02 — Lọc Cơ hội</title><desc id="desc">Danh sách Cơ hội lọc theo giai đoạn hoặc quá hạn Việc tiếp theo.</desc><style>.bg{fill:#f7f9fc}.card{fill:#fff;stroke:#d9e2ef}.line{stroke:#e7edf4}.h1{font:700 25px Inter,'Segoe UI',Arial;fill:#07152f}.sub{font:400 14px Inter,'Segoe UI',Arial;fill:#64748b}.label{font:600 12px Inter,'Segoe UI',Arial;fill:#60718f}.body{font:400 14px Inter,'Segoe UI',Arial;fill:#3f526f}.strong{font:700 14px Inter,'Segoe UI',Arial;fill:#07152f}.tag{font:600 11px Inter,'Segoe UI',Arial}</style><rect width="1200" height="760" class="bg"/><text x="32" y="48" class="h1">Lọc Cơ hội</text><text x="32" y="75" class="sub">Theo giai đoạn và tình trạng quá hạn Việc tiếp theo</text><rect x="32" y="108" width="1136" height="108" rx="14" class="card"/><text x="56" y="140" class="label">GIAI ĐOẠN</text><rect x="56" y="154" width="244" height="42" rx="7" fill="#fff" stroke="#becde1"/><text x="74" y="181" class="body">Thương lượng</text><text x="274" y="181" class="body">⌄</text><text x="336" y="140" class="label">VIỆC TIẾP THEO</text><rect x="336" y="154" width="244" height="42" rx="7" fill="#fff" stroke="#becde1"/><text x="354" y="181" class="body">Quá hạn</text><text x="554" y="181" class="body">⌄</text><rect x="1050" y="152" width="98" height="34" rx="7" fill="#fff" stroke="#bfcee0"/><text x="1070" y="174" class="body">Xóa lọc</text><rect x="32" y="244" width="1136" height="342" rx="14" class="card"/><rect x="33" y="245" width="1134" height="62" rx="13" fill="#fbfcfe"/><text x="58" y="283" class="label">CƠ HỘI</text><text x="350" y="283" class="label">CÔNG TY</text><text x="600" y="283" class="label">GIAI ĐOẠN</text><text x="830" y="283" class="label">VIỆC TIẾP THEO</text><line x1="32" y1="307" x2="1168" y2="307" class="line"/><text x="58" y="360" class="strong">ERP Transformation</text><text x="350" y="360" class="body">FPT Software</text><rect x="600" y="340" width="118" height="30" rx="15" fill="#f3efff"/><text x="620" y="360" class="tag" fill="#6d28d9">Thương lượng</text><text x="830" y="350" class="body">Gửi đề xuất vòng 2</text><text x="830" y="374" class="tag" fill="#dc2626">Quá hạn · 12/08/2026</text><rect x="32" y="620" width="1136" height="64" rx="12" fill="#eef6ff"/><text x="58" y="659" class="body" fill="#1d4ed8">1 Cơ hội thỏa tiêu chí đang chọn.</text><text x="32" y="736" class="sub">SCR-US009-02 · US-009 · AC-023</text></svg>
