<svg xmlns="http://www.w3.org/2000/svg" width="1400" height="900" viewBox="0 0 1400 900" role="img" aria-labelledby="title desc">
<title id="title">US-002 — Người liên hệ và đầu mối chính (PIC)</title>
<desc id="desc">Sơ đồ luồng năm màn hình nghiệp vụ cho US-002, truy vết AC-005 · AC-006 · AC-007.</desc>
<style>
.bg{fill:#f7f9fc}.card{fill:#fff;stroke:#d9e2ef}.h1{font:700 27px Inter,'Segoe UI',Arial,sans-serif;fill:#07152f}.sub{font:400 14px Inter,'Segoe UI',Arial,sans-serif;fill:#64748b}.eyebrow{font:700 12px Inter,'Segoe UI',Arial,sans-serif;fill:#4634f2;letter-spacing:1.1px}.paneltitle{font:700 15px Inter,'Segoe UI',Arial,sans-serif;fill:#1e2f57}.body{font:400 13px Inter,'Segoe UI',Arial,sans-serif;fill:#3f526f}.chiptext{font:700 12px Inter,'Segoe UI',Arial,sans-serif;fill:#4634f2}.hint{font:400 12px Inter,'Segoe UI',Arial,sans-serif;fill:#64748b}
</style>
<rect width="1400" height="900" class="bg"/>
<text x="32" y="44" class="eyebrow">US-002 · SALES</text>
<text x="32" y="82" class="h1">Người liên hệ &amp; đầu mối chính (PIC)</text>
<rect x="32" y="102" width="356" height="34" rx="17" fill="#eef0ff"/>
<text x="50" y="124" class="chiptext">AC-005 · AC-006 · AC-007</text>
<text x="32" y="168" class="sub">Luồng năm màn hình nghiệp vụ và trạng thái liên quan</text>

<!-- Row 1 -->
<rect x="32" y="196" width="372" height="300" rx="14" class="card"/>
<rect x="66" y="226" width="5" height="25" rx="3" fill="#695cff"/>
<text x="84" y="245" class="paneltitle">SCR-US002-01 · Danh sách</text>
<circle cx="72" cy="292" r="4" fill="#5236f5"/><text x="96" y="297" class="body">Ngữ cảnh: một Công ty</text>
<circle cx="72" cy="332" r="4" fill="#5236f5"/><text x="96" y="337" class="body">Họ tên · Chức danh · Email</text>
<circle cx="72" cy="372" r="4" fill="#5236f5"/><text x="96" y="377" class="body">Badge PIC duy nhất</text>
<circle cx="72" cy="412" r="4" fill="#5236f5"/><text x="96" y="417" class="body">Thêm · Sửa · Xóa liên hệ</text>
<circle cx="72" cy="452" r="4" fill="#5236f5"/><text x="96" y="457" class="body">Empty: chưa có người liên hệ</text>

<rect x="428" y="196" width="372" height="300" rx="14" class="card"/>
<rect x="462" y="226" width="5" height="25" rx="3" fill="#695cff"/>
<text x="480" y="245" class="paneltitle">SCR-US002-02 · Thêm liên hệ</text>
<circle cx="468" cy="292" r="4" fill="#5236f5"/><text x="492" y="297" class="body">Họ tên · Chức danh · Email</text>
<circle cx="468" cy="332" r="4" fill="#5236f5"/><text x="492" y="337" class="body">Tùy chọn đặt làm PIC</text>
<circle cx="468" cy="372" r="4" fill="#5236f5"/><text x="492" y="377" class="body">Lưu liên hệ · Hủy</text>
<circle cx="468" cy="412" r="4" fill="#5236f5"/><text x="492" y="417" class="body">Người liên hệ gắn đúng Công ty</text>

<rect x="824" y="196" width="372" height="300" rx="14" class="card"/>
<rect x="858" y="226" width="5" height="25" rx="3" fill="#695cff"/>
<text x="876" y="245" class="paneltitle">SCR-US002-03 · Sửa liên hệ</text>
<circle cx="864" cy="292" r="4" fill="#5236f5"/><text x="888" y="297" class="body">Dữ liệu hiện tại điền sẵn</text>
<circle cx="864" cy="332" r="4" fill="#5236f5"/><text x="888" y="337" class="body">Cập nhật Họ tên · Chức danh · Email</text>
<circle cx="864" cy="372" r="4" fill="#5236f5"/><text x="888" y="377" class="body">Lưu thay đổi · Hủy</text>
<circle cx="864" cy="412" r="4" fill="#5236f5"/><text x="888" y="417" class="body">Thay đổi được ghi nhận</text>

<!-- Row 2 -->
<rect x="316" y="520" width="372" height="300" rx="14" class="card"/>
<rect x="350" y="550" width="5" height="25" rx="3" fill="#695cff"/>
<text x="368" y="569" class="paneltitle">SCR-US002-04 · Chuyển PIC</text>
<circle cx="356" cy="616" r="4" fill="#5236f5"/><text x="380" y="621" class="body">Trước / sau khi chuyển PIC</text>
<circle cx="356" cy="656" r="4" fill="#5236f5"/><text x="380" y="661" class="body">Nhãn gỡ khỏi người cũ</text>
<circle cx="356" cy="696" r="4" fill="#5236f5"/><text x="380" y="701" class="body">Nhãn gán cho người mới</text>
<circle cx="356" cy="736" r="4" fill="#5236f5"/><text x="380" y="741" class="body">Luôn đúng một PIC tại một thời điểm</text>

<rect x="712" y="520" width="372" height="300" rx="14" class="card"/>
<rect x="746" y="550" width="5" height="25" rx="3" fill="#695cff"/>
<text x="764" y="569" class="paneltitle">SCR-US002-05 · Trạng thái</text>
<circle cx="752" cy="616" r="4" fill="#5236f5"/><text x="776" y="621" class="body">Xác nhận xóa người liên hệ</text>
<circle cx="752" cy="656" r="4" fill="#5236f5"/><text x="776" y="661" class="body">Empty · Not-found · Lỗi có thể thử lại</text>
<circle cx="752" cy="696" r="4" fill="#5236f5"/><text x="776" y="701" class="body">Phản hồi lưu thành công</text>
<circle cx="752" cy="736" r="4" fill="#5236f5"/><text x="776" y="741" class="body">Định dạng trường: chưa xác nhận (Q-002-02)</text>

<rect x="32" y="850" width="1336" height="34" rx="10" fill="#f1f4f9"/>
<text x="50" y="872" class="hint">Không quyết định framework, component library, endpoint hoặc cấu trúc triển khai. Wireframe BA cho mục đích nghiệp vụ.</text>
</svg>
